<svg width="79" height="26" viewBox="0 0 79 26" fill="none" xmlns="http://www.w3.org/2000/svg">
<g clip-path="url(#clip0_1_444)">
<path d="M43.6911 22.3606C39.0734 22.3606 35.9343 19.2897 35.9343 14.4218C35.9343 9.87239 39.3691 6.66504 43.6456 6.66504C45.8748 6.66504 47.5581 7.30196 49.1277 8.91701L47.2624 11.1007C46.2388 10.0771 45.0787 9.57667 43.6684 9.57667C41.0752 9.57667 39.3919 11.6467 39.3919 14.4218C39.3919 17.5382 40.916 19.4489 43.7139 19.4489C45.6246 19.4489 46.5572 18.63 47.5354 17.7202L49.4461 19.9039C48.0358 21.4279 46.3298 22.3606 43.6911 22.3606Z" fill="#2B2A70"/>
<path d="M55.9972 22.3606C53.9044 22.3606 52.3576 21.5872 50.9018 20.4726L52.6306 18.1296C53.5177 18.8348 54.8143 19.4489 56.0654 19.4489C57.5895 19.4489 57.9989 18.9258 57.9989 18.0159C57.9989 16.4918 55.2238 15.9686 53.9499 15.2635C52.4259 14.4218 51.2203 13.4664 51.2203 11.0552C51.2203 7.93888 53.9499 6.66504 56.6341 6.66504C58.0672 6.66504 59.796 7.05174 61.0243 7.98437L59.523 10.4638C58.8633 9.96338 57.726 9.59942 56.6341 9.59942C55.0873 9.59942 54.5414 10.4638 54.5414 11.078C54.5414 12.4428 56.4749 12.875 58.2492 13.6484C59.7277 14.2853 61.32 15.3317 61.32 17.8339C61.32 20.6773 59.2955 22.3606 55.9972 22.3606Z" fill="#2B2A70"/>
<path d="M75.8547 22.1103V13.3299C75.8547 12.8295 75.9001 12.3518 75.9229 12.2835C75.9001 12.3518 75.7864 12.6475 75.6499 12.875L72.2606 19.1077H70.9868L67.5292 12.875C67.4155 12.6702 67.279 12.3745 67.2562 12.2835C67.2562 12.3518 67.3245 12.8295 67.3245 13.3299V22.0876H64.0034V6.89246H67.279L71.3735 14.308C71.5099 14.581 71.6464 14.9222 71.6692 14.9904C71.6692 14.9449 71.7829 14.581 71.9421 14.308L75.8092 6.89246H79.1985V22.0876H75.8547V22.1103Z" fill="#2B2A70"/>
<path d="M7.93701 0L15.4436 12.9886H30.4567L22.9501 0H7.93701Z" fill="url(#paint0_linear_1_444)"/>
<path d="M22.9488 26L20.1964 21.2003L24.9278 12.9886L20.1964 4.79965L22.9488 0L30.4554 12.9886L22.9488 26Z" fill="url(#paint1_linear_1_444)"/>
<path d="M20.1964 4.79965L24.9278 12.9886H30.4554L22.9488 0L20.1964 4.79965Z" fill="url(#paint2_linear_1_444)"/>
<path d="M18.2162 21.2001H5.18213L7.93454 25.9997H20.9914L18.2162 21.2001Z" fill="url(#paint3_linear_1_444)"/>
<path d="M7.93474 26.0004L10.7099 21.2007L5.97849 12.989L9.73177 6.50607L6.95661 1.70642L0.450928 12.989L7.93474 26.0004Z" fill="url(#paint4_linear_1_444)"/>
<path d="M10.7097 21.2001H5.18213L7.93454 25.9997L10.7097 21.2001Z" fill="#3B18EE"/>
</g>
<defs>
<linearGradient id="paint0_linear_1_444" x1="13.5756" y1="9.7485" x2="24.8323" y2="3.24945" gradientUnits="userSpaceOnUse">
<stop offset="0.00091" stop-color="#FE4E87"/>
<stop offset="1" stop-color="#CF34FE"/>
</linearGradient>
<linearGradient id="paint1_linear_1_444" x1="28.5831" y1="22.7466" x2="17.3264" y2="3.24948" gradientUnits="userSpaceOnUse">
<stop stop-color="#FD588F"/>
<stop offset="1" stop-color="#8F34FD"/>
</linearGradient>
<linearGradient id="paint2_linear_1_444" x1="28.382" y1="14.1972" x2="20.8776" y2="1.19923" gradientUnits="userSpaceOnUse">
<stop stop-color="#8A01D7"/>
<stop offset="0.999" stop-color="#4C00FE"/>
</linearGradient>
<linearGradient id="paint3_linear_1_444" x1="5.17508" y1="23.5973" x2="20.9884" y2="23.5973" gradientUnits="userSpaceOnUse">
<stop stop-color="#A671FF"/>
<stop offset="1" stop-color="#AA00FF"/>
</linearGradient>
<linearGradient id="paint4_linear_1_444" x1="12.8364" y1="23.1725" x2="2.07109" y2="4.52639" gradientUnits="userSpaceOnUse">
<stop stop-color="#6729F4"/>
<stop offset="1" stop-color="#00E5C1"/>
</linearGradient>
<clipPath id="clip0_1_444">
<rect width="78.7734" height="26" fill="white"/>
</clipPath>
</defs>
</svg>
